HIERARCHY
ROOT Hips
{
    OFFSET   0.000000   0.000000   0.000000
    CHANNELS 6 Xposition Yposition Zposition Zrotation Xrotation Yrotation
    JOINT Chest
    {
        OFFSET   0.000000   8.007240   0.000000
        CHANNELS 3 Zrotation Xrotation Yrotation
        JOINT Chest2
        {
            OFFSET   0.000000  22.077100   0.000000
            CHANNELS 3 Zrotation Xrotation Yrotation
            JOINT Neck
            {
                OFFSET   0.000000  23.254800   0.000000
                CHANNELS 3 Zrotation Xrotation Yrotation
                JOINT Head
                {
                    OFFSET   0.000000  14.370000   1.956600
                    CHANNELS 3 Zrotation Xrotation Yrotation
                    End Site
                    {
                        OFFSET   0.000000  19.566000   0.000000
                    }
                }
            }
            JOINT LeftCollar
            {
                OFFSET   3.911900  19.017000  -0.467064
                CHANNELS 3 Zrotation Xrotation Yrotation
                JOINT LeftShoulder
                {
                    OFFSET  10.383700   0.000000   0.000000
                    CHANNELS 3 Zrotation Xrotation Yrotation
                    JOINT LeftElbow
                    {
                        OFFSET  26.662100   0.001476   0.000517
                        CHANNELS 3 Zrotation Xrotation Yrotation
                        JOINT LeftWrist
                        {
                            OFFSET  28.869000  -0.000025  -0.000106
                            CHANNELS 3 Zrotation Xrotation Yrotation
                            JOINT LeftFinger0
                            {
                                OFFSET   2.044660  -2.323460   3.252850
                                CHANNELS 3 Zrotation Xrotation Yrotation
                                JOINT LeftFinger01
                                {
                                    OFFSET   3.088130   0.000000   0.000000
                                    CHANNELS 3 Zrotation Xrotation Yrotation
                                    JOINT LeftFinger02
                                    {
                                        OFFSET   2.639460   0.000000   0.000000
                                        CHANNELS 3 Zrotation Xrotation Yrotation
                                        End Site
                                        {
                                            OFFSET   2.582190   0.000000   0.000000
                                        }
                                    }
                                }
                            }
                            JOINT LeftFinger1
                            {
                                OFFSET   8.364480   0.000000   3.252850
                                CHANNELS 3 Zrotation Xrotation Yrotation
                                JOINT LeftFinger11
                                {
                                    OFFSET   4.646930   0.000000   0.000000
                                    CHANNELS 3 Zrotation Xrotation Yrotation
                                    JOINT LeftFinger12
                                    {
                                        OFFSET   2.323460   0.000000   0.000000
                                        CHANNELS 3 Zrotation Xrotation Yrotation
                                        End Site
                                        {
                                            OFFSET   2.273050   0.000000   0.000000
                                        }
                                    }
                                }
                            }
                            JOINT LeftFinger2
                            {
                                OFFSET   8.364490   0.000015   1.078090
                                CHANNELS 3 Zrotation Xrotation Yrotation
                                JOINT LeftFinger21
                                {
                                    OFFSET   5.111620   0.000000   0.000000
                                    CHANNELS 3 Zrotation Xrotation Yrotation
                                    JOINT LeftFinger22
                                    {
                                        OFFSET   2.788160   0.000016   0.000000
                                        CHANNELS 3 Zrotation Xrotation Yrotation
                                        End Site
                                        {
                                            OFFSET   2.727660   0.000000   0.000000
                                        }
                                    }
                                }
                            }
                            JOINT LeftFinger3
                            {
                                OFFSET   7.899780   0.000017  -1.078090
                                CHANNELS 3 Zrotation Xrotation Yrotation
                                JOINT LeftFinger31
                                {
                                    OFFSET   4.646930   0.000000   0.000000
                                    CHANNELS 3 Zrotation Xrotation Yrotation
                                    JOINT LeftFinger32
                                    {
                                        OFFSET   2.323470   0.000000   0.000000
                                        CHANNELS 3 Zrotation Xrotation Yrotation
                                        End Site
                                        {
                                            OFFSET   2.273050   0.000000   0.000000
                                        }
                                    }
                                }
                            }
                            JOINT LeftFinger4
                            {
                                OFFSET   7.435090   0.000000  -3.252850
                                CHANNELS 3 Zrotation Xrotation Yrotation
                                JOINT LeftFinger41
                                {
                                    OFFSET   3.717550   0.000000   0.000000
                                    CHANNELS 3 Zrotation Xrotation Yrotation
                                    JOINT LeftFinger42
                                    {
                                        OFFSET   1.858770   0.000000   0.000000
                                        CHANNELS 3 Zrotation Xrotation Yrotation
                                        End Site
                                        {
                                            OFFSET   1.818440   0.000000   0.000000
                                        }
                                    }
                                }
                            }
                        }
                    }
                }
            }
            JOINT RightCollar
            {
                OFFSET  -3.911900  19.017000  -0.467063
                CHANNELS 3 Zrotation Xrotation Yrotation
                JOINT RightShoulder
                {
                    OFFSET -10.383700   0.000019   0.000000
                    CHANNELS 3 Zrotation Xrotation Yrotation
                    JOINT RightElbow
                    {
                        OFFSET -26.662100   0.001175   0.000102
                        CHANNELS 3 Zrotation Xrotation Yrotation
                        JOINT RightWrist
                        {
                            OFFSET -28.869000   0.000016  -0.000079
                            CHANNELS 3 Zrotation Xrotation Yrotation
                            JOINT RightFinger0
                            {
                                OFFSET  -2.044660  -2.323490   3.252850
                                CHANNELS 3 Zrotation Xrotation Yrotation
                                JOINT RightFinger01
                                {
                                    OFFSET  -3.088140   0.000000   0.000000
                                    CHANNELS 3 Zrotation Xrotation Yrotation
                                    JOINT RightFinger02
                                    {
                                        OFFSET  -2.639460   0.000000   0.000000
                                        CHANNELS 3 Zrotation Xrotation Yrotation
                                        End Site
                                        {
                                            OFFSET  -2.582190   0.000000   0.000000
                                        }
                                    }
                                }
                            }
                            JOINT RightFinger1
                            {
                                OFFSET  -8.364480   0.000000   3.252850
                                CHANNELS 3 Zrotation Xrotation Yrotation
                                JOINT RightFinger11
                                {
                                    OFFSET  -4.646930   0.000000   0.000000
                                    CHANNELS 3 Zrotation Xrotation Yrotation
                                    JOINT RightFinger12
                                    {
                                        OFFSET  -2.323470   0.000000   0.000000
                                        CHANNELS 3 Zrotation Xrotation Yrotation
                                        End Site
                                        {
                                            OFFSET  -2.273050   0.000000   0.000000
                                        }
                                    }
                                }
                            }
                            JOINT RightFinger2
                            {
                                OFFSET  -8.364480   0.000000   1.078090
                                CHANNELS 3 Zrotation Xrotation Yrotation
                                JOINT RightFinger21
                                {
                                    OFFSET  -5.111620   0.000000   0.000000
                                    CHANNELS 3 Zrotation Xrotation Yrotation
                                    JOINT RightFinger22
                                    {
                                        OFFSET  -2.788160   0.000000   0.000000
                                        CHANNELS 3 Zrotation Xrotation Yrotation
                                        End Site
                                        {
                                            OFFSET  -2.727660   0.000000   0.000000
                                        }
                                    }
                                }
                            }
                            JOINT RightFinger3
                            {
                                OFFSET  -7.899780   0.000000  -1.078090
                                CHANNELS 3 Zrotation Xrotation Yrotation
                                JOINT RightFinger31
                                {
                                    OFFSET  -4.646930   0.000000   0.000000
                                    CHANNELS 3 Zrotation Xrotation Yrotation
                                    JOINT RightFinger32
                                    {
                                        OFFSET  -2.323470   0.000000   0.000000
                                        CHANNELS 3 Zrotation Xrotation Yrotation
                                        End Site
                                        {
                                            OFFSET  -2.273050   0.000000   0.000000
                                        }
                                    }
                                }
                            }
                            JOINT RightFinger4
                            {
                                OFFSET  -7.435090   0.000000  -3.252850
                                CHANNELS 3 Zrotation Xrotation Yrotation
                                JOINT RightFinger41
                                {
                                    OFFSET  -3.717550   0.000000   0.000000
                                    CHANNELS 3 Zrotation Xrotation Yrotation
                                    JOINT RightFinger42
                                    {
                                        OFFSET  -1.858770   0.000000   0.000000
                                        CHANNELS 3 Zrotation Xrotation Yrotation
                                        End Site
                                        {
                                            OFFSET  -1.818440   0.000000   0.000000
                                        }
                                    }
                                }
                            }
                        }
                    }
                }
            }
        }
    }
    JOINT LeftHip
    {
        OFFSET   9.783040   0.000000   0.000000
        CHANNELS 3 Zrotation Xrotation Yrotation
        JOINT LeftKnee
        {
            OFFSET   0.000032 -41.789100  -0.002222
            CHANNELS 3 Zrotation Xrotation Yrotation
            JOINT LeftAnkle
            {
                OFFSET   0.000087 -41.133200  -0.000135
                CHANNELS 3 Zrotation Xrotation Yrotation
                JOINT LeftToe
                {
                    OFFSET   0.000000  -6.358960  14.674500
                    CHANNELS 3 Zrotation Xrotation Yrotation
                    End Site
                    {
                        OFFSET   0.000000   0.000000   3.913200
                    }
                }
            }
        }
    }
    JOINT RightHip
    {
        OFFSET  -9.783040   0.000000   0.000000
        CHANNELS 3 Zrotation Xrotation Yrotation
        JOINT RightKnee
        {
            OFFSET   0.000047 -41.789100  -0.000896
            CHANNELS 3 Zrotation Xrotation Yrotation
            JOINT RightAnkle
            {
                OFFSET  -0.000117 -41.133300  -0.000248
                CHANNELS 3 Zrotation Xrotation Yrotation
                JOINT RightToe
                {
                    OFFSET   0.000000  -6.358970  14.674500
                    CHANNELS 3 Zrotation Xrotation Yrotation
                    End Site
                    {
                        OFFSET   0.000000   0.000000   3.913200
                    }
                }
            }
        }
    }
}
MOTION
Frames: 6
Frame Time:   0.016667
 -0.628280  89.540600   0.157148  -1.972250  -6.002340   2.404440   0.900840   4.493640  -1.201410   1.905120   8.966730  -2.485280   0.927713  -1.027780   0.011654   1.525300  -2.082520   2.340850  -6.280610   1.828110   0.806721 -67.571400  18.520000  -8.482580  -2.818960  -5.278580 -10.391600   4.069310  -6.350220   9.542230  41.063900  28.917800 -68.197200 -19.686500   0.000111   0.000082  -4.850110  -0.001647   0.011969 -34.372400   8.022810 -11.530400 -28.787500  -0.002726  -0.005850 -20.161000  -0.003276  -0.004853 -28.541100   3.957990  -7.230410 -42.849800  -0.011726  -0.005072 -28.537900  -0.004725  -0.004114 -28.787000   0.617946  -1.125100 -42.084100   0.001333  -0.000589 -28.028000   0.000000  -0.000457 -36.507200  -0.127589   0.166771 -54.761000   0.001330   0.001522 -36.470900   0.009237   0.001348   7.879670  -1.093720  12.775000  66.863300  12.929300  -4.282210  -0.171856  -1.280840  11.221700  -7.754090 -13.893900   2.353300 -37.002200  31.705100  66.519700  32.216400   0.000189  -0.000094  11.119300   0.001302  -0.000085  30.626000   2.011980   3.393890  25.106400   0.005340  -0.008872  17.574500   0.006986  -0.004343  28.439100   1.259100   2.323320  35.695100   0.010499  -0.012252  23.772900   0.000105  -0.010209  28.553200   0.102263   0.210626  36.675000   0.009923  -0.012355  24.425600   0.001463  -0.010155  35.834000   0.040518   0.056230  53.750900   0.003111  -0.011808  35.798100   0.008332  -0.007647   2.968180   8.259190   2.042350   1.268920   0.706759  10.374000  -3.253650  -2.120930   0.264816   0.000000   0.000000  -0.000000   0.779474   3.479970  -3.744520   2.313320   5.105060  -6.678860  -5.394920  -1.930270  -4.857610  -0.000000   0.000000  -0.000000
 -0.636633  89.540400   0.140282  -1.969780  -6.024570   2.420450   0.900600   4.508200  -1.194070   1.904400   8.995990  -2.470820   0.919091  -1.032250   0.011664   1.511150  -2.091650   2.340840  -6.286560   1.810760   0.794877 -67.578900  18.515800  -8.484860  -2.816950  -5.261930 -10.403100   4.080080  -6.356150   9.537220  41.064300  28.918400 -68.197000 -19.691100   0.000114   0.000100  -4.850110  -0.001658   0.011969 -34.380000   8.022600 -11.528900 -28.793100  -0.002713  -0.005842 -20.161000  -0.003271  -0.004847 -28.542100   3.953900  -7.222880 -42.852200  -0.011719  -0.005068 -28.539500  -0.004724  -0.004107 -28.787100   0.616067  -1.121410 -42.093900   0.001338  -0.000575 -28.034600   0.000000  -0.000440 -36.512800  -0.127800   0.166848 -54.769400   0.001336   0.001530 -36.476500   0.009233   0.001353   7.869710  -1.132050  12.767500  66.850700  12.970400  -4.253120  -0.177784  -1.180650  11.266600  -7.750690 -13.854800   2.372060 -37.023900  31.768800  66.604100  32.223700   0.000181  -0.000089  11.119800   0.001302  -0.000091  30.634600   2.010300   3.389460  25.113600   0.005289  -0.008867  17.579600   0.006985  -0.004331  28.439200   1.259100   2.323320  35.727300   0.010510  -0.012255  23.794300   0.000065  -0.010210  28.553400   0.102264   0.199208  36.701400   0.009937  -0.012360  24.443200   0.001443  -0.010164  35.856100   0.035138   0.048780  53.784100   0.003101  -0.011806  35.820200   0.008331  -0.007635   2.967210   8.283120   2.042510   1.276810   0.677042  10.368500  -3.252590  -2.092780   0.265780  -0.000000   0.000000   0.000000   0.783272   3.496530  -3.743510   2.316540   5.111790  -6.681510  -5.406240  -1.931700  -4.872760   0.000000   0.000000   0.000000
 -0.651341  89.540300   0.112422  -1.965690  -6.062860   2.445660   0.900344   4.535010  -1.180970   1.903560   9.049840  -2.445040   0.903420  -1.043590   0.011682   1.485470  -2.114810   2.340760  -6.298640   1.776650   0.769720 -67.585800  18.511400  -8.489330  -2.814130  -5.237300 -10.421600   4.090500  -6.362130   9.529020  41.067100  28.922000 -68.197000 -19.700300   0.000129   0.000128  -4.850120  -0.001681   0.011969 -34.391200   8.021000 -11.522200 -28.801400  -0.002679  -0.005825 -20.161000  -0.003258  -0.004830 -28.544200   3.945780  -7.207930 -42.854600  -0.011700  -0.005060 -28.541200  -0.004721  -0.004091 -28.787400   0.610104  -1.110210 -42.103700   0.001352  -0.000539 -28.041100   0.000000  -0.000398 -36.518300  -0.128010   0.166957 -54.777800   0.001348   0.001549 -36.482000   0.009223   0.001367   7.848390  -1.204950  12.751900  66.826300  13.088900  -4.209680  -0.188503  -0.985609  11.363600  -7.745860 -13.782200   2.391140 -37.041800  31.865200  66.736300  32.233800   0.000173  -0.000081  11.120300   0.001305  -0.000096  30.647200   2.008610   3.385040  25.123800   0.005171  -0.008858  17.586700   0.006980  -0.004304  28.439300   1.259100   2.323320  35.759500   0.010532  -0.012263  23.815800   0.000000  -0.010216  28.553500   0.102265   0.187791  36.742000   0.009963  -0.012373  24.470200   0.001404  -0.010180  35.890500   0.026762   0.037117  53.835700   0.003079  -0.011803  35.854500   0.008327  -0.007608   2.965550   8.322520   2.042980   1.288880   0.630548  10.357500  -3.251190  -2.046960   0.266742   0.000000   0.000000  -0.000000   0.791701   3.513110  -3.738630   2.321690   5.130950  -6.689320  -5.423020  -1.934640  -4.897150  -0.000000   0.000000  -0.000000
 -0.664947  89.540300   0.090990  -1.962470  -6.096360   2.463370   0.900313   4.561080  -1.170180   1.903230   9.102170  -2.423840   0.889085  -1.059890   0.011698   1.461830  -2.148180   2.339570  -6.311470   1.740470   0.741325 -67.584200  18.513400  -8.492580  -2.812860  -5.222070 -10.437700   4.087330  -6.358230   9.522710  41.080200  28.939800 -68.209200 -19.711400   0.000162   0.000147  -4.854540  -0.001711   0.011967 -34.398300   8.012370 -11.506100 -28.806500  -0.002630  -0.005804 -20.160800  -0.003237  -0.004800 -28.546600   3.935700  -7.189550 -42.843700  -0.011671  -0.005048 -28.534000  -0.004716  -0.004068 -28.787800   0.598023  -1.088190 -42.097600   0.001374  -0.000484 -28.037000   0.000041  -0.000336 -36.517800  -0.127957   0.167004 -54.777100   0.001367   0.001579 -36.481500   0.009206   0.001388   7.821910  -1.274770  12.734500  66.802600  13.279600  -4.180110  -0.194217  -0.772908  11.468500  -7.700900 -13.687200   2.390960 -37.009900  31.920800  66.853800  32.237600   0.000176  -0.000077  11.120200   0.001318  -0.000079  30.652400   2.026510   3.414150  25.128200   0.004999  -0.008850  17.589800   0.006973  -0.004260  28.438800   1.262810   2.329840  35.757600   0.010559  -0.012276  23.814500  -0.000065  -0.010232  28.553500   0.108714   0.199422  36.772500   0.009995  -0.012394  24.490500   0.001352  -0.010201  35.917600   0.020158   0.027716  53.876500   0.003053  -0.011806  35.881700   0.008322  -0.007569   2.964100   8.354260   2.043770   1.296490   0.596545  10.344400  -3.250780  -2.011300   0.266605  -0.000000   0.000000  -0.000000   0.803777   3.509650  -3.728420   2.319260   5.169130  -6.702340  -5.431750  -1.938640  -4.915920  -0.000000   0.000000   0.000000
 -0.679105  89.540500   0.069191  -1.959460  -6.130750   2.478050   0.901018   4.591590  -1.155280   1.904270   9.163390  -2.394660   0.871323  -1.082770   0.011724   1.432740  -2.194770   2.331330  -6.329670   1.693920   0.700211 -67.579400  18.528200  -8.500630  -2.812410  -5.214810 -10.446900   4.081420  -6.348520   9.516730  41.096500  28.961600 -68.226500 -19.722800   0.000198   0.000157  -4.861380  -0.001748   0.011964 -34.403700   8.000620 -11.488600 -28.809000  -0.002568  -0.005777 -20.160400  -0.003210  -0.004760 -28.549100   3.925700  -7.170970 -42.825200  -0.011636  -0.005032 -28.521600  -0.004711  -0.004041 -28.788300   0.585261  -1.065010 -42.084600   0.001403  -0.000415 -28.028300   0.000114  -0.000258 -36.514400  -0.127588   0.167020 -54.771900   0.001389   0.001615 -36.478100   0.009184   0.001415   7.788800  -1.370260  12.710400  66.768700  13.548200  -4.167590  -0.211117  -0.522240  11.638900  -7.582120 -13.625700   2.390440 -36.999800  31.908200  66.957200  32.238600   0.000180  -0.000067  11.119300   0.001338  -0.000061  30.650100   2.073940   3.493750  25.129700   0.004809  -0.008841  17.590800   0.006963  -0.004216  28.436000   1.281140   2.363640  35.744300   0.010586  -0.012290  23.805700  -0.000103  -0.010249  28.553000   0.134706   0.246863  36.788800   0.010027  -0.012415  24.501400   0.001306  -0.010221  35.932400   0.016550   0.022528  53.898700   0.003025  -0.011808  35.896500   0.008315  -0.007529   2.962700   8.383010   2.044790   1.302370   0.572541  10.330000  -3.250790  -1.979610   0.266295  -0.000000   0.000000   0.000000   0.818236   3.506210  -3.713730   2.310870   5.204550  -6.720140  -5.438520  -1.942400  -4.931520  -0.000000   0.000000   0.000000
 -0.693929  89.542400   0.045967  -1.955330  -6.164180   2.489600   0.907114   4.628100  -1.132450   1.915660   9.236650  -2.350130   0.847525  -1.114060   0.011784   1.393830  -2.257930   2.298990  -6.356650   1.632300   0.639145 -67.567000  18.591300  -8.523180  -2.816270  -5.237150 -10.443600   4.073570  -6.332510   9.511800  41.107700  28.972600 -68.235100 -19.733200   0.000219   0.000145  -4.866620  -0.001796   0.011985 -34.403000   7.990540 -11.475400 -28.806100  -0.002496  -0.005745 -20.160000  -0.003178  -0.004710 -28.550900   3.918840  -7.155120 -42.805500  -0.011597  -0.005012 -28.508500  -0.004706  -0.004011 -28.788700   0.576754  -1.048580 -42.063100   0.001435  -0.000338 -28.014000   0.000185  -0.000171 -36.501000  -0.125109   0.166058 -54.751900   0.001415   0.001651 -36.464700   0.009157   0.001448   7.752890  -1.512610  12.677100  66.728600  13.906900  -4.209490  -0.256995  -0.236178  11.905800  -7.420440 -13.653500   2.358880 -36.914500  31.749900  66.966700  32.222600   0.000171  -0.000028  11.110900   0.001355  -0.000071  30.634100   2.138920   3.605300  25.120900   0.004624  -0.008831  17.584600   0.006951  -0.004190  28.424100   1.310560   2.418890  35.640400   0.010610  -0.012299  23.736500  -0.000090  -0.010260  28.548000   0.177645   0.325565  36.735000   0.010054  -0.012429  24.465500   0.001291  -0.010235  35.907400   0.022334   0.030990  53.861400   0.002991  -0.011808  35.871700   0.008306  -0.007492   2.961750   8.403330   2.045450   1.306740   0.566390  10.315300  -3.252260  -1.957660   0.265731  -0.000000   0.000000  -0.000000   0.835312   3.524380  -3.694550   2.300150   5.213590  -6.743770  -5.445150  -1.944220  -4.941640  -0.000000   0.000000  -0.000000
